# xmcd
#
# Track frame offsets:
#	150
#	21290
#	35982
#	69992
#	90025
#	116885
#	140620
#	157165
#	170030
#	186500
#
# Disc length: 2690 seconds
#
# Revision: 1
# Processed by: cddbd v1.5.1PL2 Copyright (c) Steve Scherf et al.
# Submitted via: audiograbber 1.83.01
#
DISCID=910a800a
DTITLE=U.P.Wilson - Booting
DYEAR=1999
DGENRE=Blues
TTITLE0=Made Up My Mind
TTITLE1=Texas Squaling
TTITLE2=You Say You Love Me
TTITLE3=Let Her Go
TTITLE4=I Believe
TTITLE5=Crazy Things
TTITLE6=Rock Me
TTITLE7=Chunky
TTITLE8=Hold On Woman
TTITLE9=Booting
EXTD=
EXTT0=
EXTT1=
EXTT2=
EXTT3=
EXTT4=
EXTT5=
EXTT6=
EXTT7=
EXTT8=
EXTT9=
PLAYORDER=
